<?xml version="1.0" encoding="UTF-8" standalone="no"?>
<svg width="246.592mm" height="167.217mm"
 viewBox="0 0 699 474"
 xmlns="http://www.w3.org/2000/svg" xmlns:xlink="http://www.w3.org/1999/xlink"  version="1.2" baseProfile="tiny">
<title>Qt SVG Document</title>
<desc>MATLAB, The MathWorks, Inc. Version 25.2.0.3042426 R2025b Update 1</desc>
<defs>
</defs>
<g fill="none" stroke="black" stroke-width="1" fill-rule="evenodd" stroke-linecap="square" stroke-linejoin="bevel" >

<g fill="#ffffff" fill-opacity="1" stroke="none" transform="matrix(0.74973,0,0,0.75039,-64.2264,-8.75533)"
font-family=".AppleSystemUIFont" font-size="13" font-weight="400" font-style="normal" 
>
<path vector-effect="none" fill-rule="evenodd" d="M84,10 L1017,10 L1017,642 L84,642 L84,10"/>
</g>

<g fill="#212121" fill-opacity="1" stroke="#212121" stroke-opacity="1" stroke-width="1" stroke-linecap="square" stroke-linejoin="bevel" transform="matrix(0.74973,0,0,0.75039,327.732,9.0039)"
font-family="Helvetica" font-size="14" font-weight="700" font-style="normal" 
>
<text fill="#212121" fill-opacity="1" stroke="none" xml:space="preserve" x="0" y="-0.234375" font-family="Helvetica" font-size="14" font-weight="700" font-style="normal" 
 >Bode Diagram</text>
</g>

<g fill="#212121" fill-opacity="1" stroke="#212121" stroke-opacity="1" stroke-width="1" stroke-linecap="square" stroke-linejoin="bevel" transform="matrix(0.74973,0,0,0.75039,322.109,469.499)"
font-family="Helvetica" font-size="14" font-weight="400" font-style="normal" 
>
<text fill="#212121" fill-opacity="1" stroke="none" xml:space="preserve" x="0" y="-0.234375" font-family="Helvetica" font-size="14" font-weight="400" font-style="normal" 
 >Frequency (rad/s)</text>
</g>

<g fill="#ffffff" fill-opacity="1" stroke="none" transform="matrix(7.4973e-05,0,0,7.5039e-05,-64.2264,-8.75533)"
font-family="Helvetica" font-size="14" font-weight="400" font-style="normal" 
>
<path vector-effect="none" fill-rule="evenodd" d="M1.33e+06,580000 L1.33e+06,3.04e+06 L1.007e+07,3.04e+06 L1.007e+07,580000 L1.33e+06,580000"/>
</g>

<g fill="#212121" fill-opacity="1" stroke="#212121" stroke-opacity="1" stroke-width="0.666667" stroke-linecap="square" stroke-linejoin="round" transform="matrix(0.74973,0,0,0.75039,-64.2264,-8.75533)"
font-family="Helvetica" font-size="14" font-weight="400" font-style="normal" 
>
<polyline fill="none" vector-effect="none" points="133,304 1007,304 " />
<polyline fill="none" vector-effect="none" points="133,58 1007,58 " />
<polyline fill="none" vector-effect="none" points="133,304 133,295.26 " />
<polyline fill="none" vector-effect="none" points="570,304 570,295.26 " />
<polyline fill="none" vector-effect="none" points="1007,304 1007,295.26 " />
<polyline fill="none" vector-effect="none" points="133,58 133,66.74 " />
<polyline fill="none" vector-effect="none" points="570,58 570,66.74 " />
<polyline fill="none" vector-effect="none" points="1007,58 1007,66.74 " />
<polyline fill="none" vector-effect="none" points="133,304 133,299.63 " />
<polyline fill="none" vector-effect="none" points="264.55,304 264.55,299.63 " />
<polyline fill="none" vector-effect="none" points="341.502,304 341.502,299.63 " />
<polyline fill="none" vector-effect="none" points="396.1,304 396.1,299.63 " />
<polyline fill="none" vector-effect="none" points="438.45,304 438.45,299.63 " />
<polyline fill="none" vector-effect="none" points="473.052,304 473.052,299.63 " />
<polyline fill="none" vector-effect="none" points="502.308,304 502.308,299.63 " />
<polyline fill="none" vector-effect="none" points="527.65,304 527.65,299.63 " />
<polyline fill="none" vector-effect="none" points="550.004,304 550.004,299.63 " />
<polyline fill="none" vector-effect="none" points="570,304 570,299.63 " />
<polyline fill="none" vector-effect="none" points="701.55,304 701.55,299.63 " />
<polyline fill="none" vector-effect="none" points="778.502,304 778.502,299.63 " />
<polyline fill="none" vector-effect="none" points="833.1,304 833.1,299.63 " />
<polyline fill="none" vector-effect="none" points="875.45,304 875.45,299.63 " />
<polyline fill="none" vector-effect="none" points="910.052,304 910.052,299.63 " />
<polyline fill="none" vector-effect="none" points="939.308,304 939.308,299.63 " />
<polyline fill="none" vector-effect="none" points="964.65,304 964.65,299.63 " />
<polyline fill="none" vector-effect="none" points="987.004,304 987.004,299.63 " />
<polyline fill="none" vector-effect="none" points="1007,304 1007,299.63 " />
<polyline fill="none" vector-effect="none" points="133,58 133,62.37 " />
<polyline fill="none" vector-effect="none" points="264.55,58 264.55,62.37 " />
<polyline fill="none" vector-effect="none" points="341.502,58 341.502,62.37 " />
<polyline fill="none" vector-effect="none" points="396.1,58 396.1,62.37 " />
<polyline fill="none" vector-effect="none" points="438.45,58 438.45,62.37 " />
<polyline fill="none" vector-effect="none" points="473.052,58 473.052,62.37 " />
<polyline fill="none" vector-effect="none" points="502.308,58 502.308,62.37 " />
<polyline fill="none" vector-effect="none" points="527.65,58 527.65,62.37 " />
<polyline fill="none" vector-effect="none" points="550.004,58 550.004,62.37 " />
<polyline fill="none" vector-effect="none" points="570,58 570,62.37 " />
<polyline fill="none" vector-effect="none" points="701.55,58 701.55,62.37 " />
<polyline fill="none" vector-effect="none" points="778.502,58 778.502,62.37 " />
<polyline fill="none" vector-effect="none" points="833.1,58 833.1,62.37 " />
<polyline fill="none" vector-effect="none" points="875.45,58 875.45,62.37 " />
<polyline fill="none" vector-effect="none" points="910.052,58 910.052,62.37 " />
<polyline fill="none" vector-effect="none" points="939.308,58 939.308,62.37 " />
<polyline fill="none" vector-effect="none" points="964.65,58 964.65,62.37 " />
<polyline fill="none" vector-effect="none" points="987.004,58 987.004,62.37 " />
<polyline fill="none" vector-effect="none" points="1007,58 1007,62.37 " />
<polyline fill="none" vector-effect="none" points="133,304 133,58 " />
<polyline fill="none" vector-effect="none" points="1007,304 1007,58 " />
<polyline fill="none" vector-effect="none" points="133,304 141.74,304 " />
<polyline fill="none" vector-effect="none" points="133,242.5 141.74,242.5 " />
<polyline fill="none" vector-effect="none" points="133,181 141.74,181 " />
<polyline fill="none" vector-effect="none" points="133,119.5 141.74,119.5 " />
<polyline fill="none" vector-effect="none" points="133,58 141.74,58 " />
<polyline fill="none" vector-effect="none" points="1007,304 998.26,304 " />
<polyline fill="none" vector-effect="none" points="1007,242.5 998.26,242.5 " />
<polyline fill="none" vector-effect="none" points="1007,181 998.26,181 " />
<polyline fill="none" vector-effect="none" points="1007,119.5 998.26,119.5 " />
<polyline fill="none" vector-effect="none" points="1007,58 998.26,58 " />
</g>

<g fill="#212121" fill-opacity="1" stroke="#212121" stroke-opacity="1" stroke-width="1" stroke-linecap="square" stroke-linejoin="bevel" transform="matrix(0.74973,0,0,0.75039,17.2443,221.99)"
font-family="Helvetica" font-size="13" font-weight="400" font-style="normal" 
>
<text fill="#212121" fill-opacity="1" stroke="none" xml:space="preserve" x="0" y="0" font-family="Helvetica" font-size="13" font-weight="400" font-style="normal" 
 >-20</text>
</g>

<g fill="#212121" fill-opacity="1" stroke="#212121" stroke-opacity="1" stroke-width="1" stroke-linecap="square" stroke-linejoin="bevel" transform="matrix(0.74973,0,0,0.75039,17.2443,175.841)"
font-family="Helvetica" font-size="13" font-weight="400" font-style="normal" 
>
<text fill="#212121" fill-opacity="1" stroke="none" xml:space="preserve" x="0" y="0" font-family="Helvetica" font-size="13" font-weight="400" font-style="normal" 
 >-15</text>
</g>

<g fill="#212121" fill-opacity="1" stroke="#212121" stroke-opacity="1" stroke-width="1" stroke-linecap="square" stroke-linejoin="bevel" transform="matrix(0.74973,0,0,0.75039,17.2443,129.692)"
font-family="Helvetica" font-size="13" font-weight="400" font-style="normal" 
>
<text fill="#212121" fill-opacity="1" stroke="none" xml:space="preserve" x="0" y="0" font-family="Helvetica" font-size="13" font-weight="400" font-style="normal" 
 >-10</text>
</g>

<g fill="#212121" fill-opacity="1" stroke="#212121" stroke-opacity="1" stroke-width="1" stroke-linecap="square" stroke-linejoin="bevel" transform="matrix(0.74973,0,0,0.75039,22.4925,83.5427)"
font-family="Helvetica" font-size="13" font-weight="400" font-style="normal" 
>
<text fill="#212121" fill-opacity="1" stroke="none" xml:space="preserve" x="0" y="0" font-family="Helvetica" font-size="13" font-weight="400" font-style="normal" 
 >-5</text>
</g>

<g fill="#212121" fill-opacity="1" stroke="#212121" stroke-opacity="1" stroke-width="1" stroke-linecap="square" stroke-linejoin="bevel" transform="matrix(0.74973,0,0,0.75039,26.2411,37.3937)"
font-family="Helvetica" font-size="13" font-weight="400" font-style="normal" 
>
<text fill="#212121" fill-opacity="1" stroke="none" xml:space="preserve" x="0" y="0" font-family="Helvetica" font-size="13" font-weight="400" font-style="normal" 
 >0</text>
</g>

<g fill="#212121" fill-opacity="1" stroke="#212121" stroke-opacity="1" stroke-width="1" stroke-linecap="square" stroke-linejoin="bevel" transform="matrix(0,-0.75039,0.74973,0,11.2465,163.084)"
font-family="Helvetica" font-size="14" font-weight="400" font-style="normal" 
>
<text fill="#212121" fill-opacity="1" stroke="none" xml:space="preserve" x="0" y="-0.234375" font-family="Helvetica" font-size="14" font-weight="400" font-style="normal" 
 >Magnitude (dB)</text>
</g>

<g fill="none" stroke="#1171be" stroke-opacity="1" stroke-width="0.666667" stroke-linecap="butt" stroke-linejoin="round" transform="matrix(0.74973,0,0,0.75039,-64.2264,-8.75533)"
font-family="Helvetica" font-size="14" font-weight="400" font-style="normal" 
>
<polyline fill="none" vector-effect="none" points="133,58.537 154.228,58.664 183.926,58.9059 213.624,59.2349 243.322,59.6817 273.02,60.2866 302.718,61.1028 332.416,62.1992 362.114,63.663 391.812,65.6018 421.51,68.1441 451.208,71.4357 480.906,75.6317 510.604,80.8833 540.302,87.3192 570,95.0268 599.698,104.037 629.396,114.319 659.094,125.785 688.792,138.307 718.49,151.734 748.189,165.909 777.887,180.688 807.585,195.942 837.283,211.564 866.981,227.466 896.679,243.579 926.377,259.85 956.075,276.239 985.773,292.715 1006.04,304 " />
</g>

<g fill="#ffffff" fill-opacity="1" stroke="none" transform="matrix(7.4973e-05,0,0,7.5039e-05,-64.2264,-8.75533)"
font-family="Helvetica" font-size="14" font-weight="400" font-style="normal" 
>
<path vector-effect="none" fill-rule="evenodd" d="M1.33e+06,3.51e+06 L1.33e+06,5.98e+06 L1.007e+07,5.98e+06 L1.007e+07,3.51e+06 L1.33e+06,3.51e+06"/>
</g>

<g fill="#212121" fill-opacity="1" stroke="#212121" stroke-opacity="1" stroke-width="0.666667" stroke-linecap="square" stroke-linejoin="round" transform="matrix(0.74973,0,0,0.75039,-64.2264,-8.75533)"
font-family="Helvetica" font-size="14" font-weight="400" font-style="normal" 
>
<polyline fill="none" vector-effect="none" points="133,598 1007,598 " />
<polyline fill="none" vector-effect="none" points="133,351 1007,351 " />
<polyline fill="none" vector-effect="none" points="133,598 133,589.26 " />
<polyline fill="none" vector-effect="none" points="570,598 570,589.26 " />
<polyline fill="none" vector-effect="none" points="1007,598 1007,589.26 " />
<polyline fill="none" vector-effect="none" points="133,351 133,359.74 " />
<polyline fill="none" vector-effect="none" points="570,351 570,359.74 " />
<polyline fill="none" vector-effect="none" points="1007,351 1007,359.74 " />
<polyline fill="none" vector-effect="none" points="133,598 133,593.63 " />
<polyline fill="none" vector-effect="none" points="264.55,598 264.55,593.63 " />
<polyline fill="none" vector-effect="none" points="341.502,598 341.502,593.63 " />
<polyline fill="none" vector-effect="none" points="396.1,598 396.1,593.63 " />
<polyline fill="none" vector-effect="none" points="438.45,598 438.45,593.63 " />
<polyline fill="none" vector-effect="none" points="473.052,598 473.052,593.63 " />
<polyline fill="none" vector-effect="none" points="502.308,598 502.308,593.63 " />
<polyline fill="none" vector-effect="none" points="527.65,598 527.65,593.63 " />
<polyline fill="none" vector-effect="none" points="550.004,598 550.004,593.63 " />
<polyline fill="none" vector-effect="none" points="570,598 570,593.63 " />
<polyline fill="none" vector-effect="none" points="701.55,598 701.55,593.63 " />
<polyline fill="none" vector-effect="none" points="778.502,598 778.502,593.63 " />
<polyline fill="none" vector-effect="none" points="833.1,598 833.1,593.63 " />
<polyline fill="none" vector-effect="none" points="875.45,598 875.45,593.63 " />
<polyline fill="none" vector-effect="none" points="910.052,598 910.052,593.63 " />
<polyline fill="none" vector-effect="none" points="939.308,598 939.308,593.63 " />
<polyline fill="none" vector-effect="none" points="964.65,598 964.65,593.63 " />
<polyline fill="none" vector-effect="none" points="987.004,598 987.004,593.63 " />
<polyline fill="none" vector-effect="none" points="1007,598 1007,593.63 " />
<polyline fill="none" vector-effect="none" points="133,351 133,355.37 " />
<polyline fill="none" vector-effect="none" points="264.55,351 264.55,355.37 " />
<polyline fill="none" vector-effect="none" points="341.502,351 341.502,355.37 " />
<polyline fill="none" vector-effect="none" points="396.1,351 396.1,355.37 " />
<polyline fill="none" vector-effect="none" points="438.45,351 438.45,355.37 " />
<polyline fill="none" vector-effect="none" points="473.052,351 473.052,355.37 " />
<polyline fill="none" vector-effect="none" points="502.308,351 502.308,355.37 " />
<polyline fill="none" vector-effect="none" points="527.65,351 527.65,355.37 " />
<polyline fill="none" vector-effect="none" points="550.004,351 550.004,355.37 " />
<polyline fill="none" vector-effect="none" points="570,351 570,355.37 " />
<polyline fill="none" vector-effect="none" points="701.55,351 701.55,355.37 " />
<polyline fill="none" vector-effect="none" points="778.502,351 778.502,355.37 " />
<polyline fill="none" vector-effect="none" points="833.1,351 833.1,355.37 " />
<polyline fill="none" vector-effect="none" points="875.45,351 875.45,355.37 " />
<polyline fill="none" vector-effect="none" points="910.052,351 910.052,355.37 " />
<polyline fill="none" vector-effect="none" points="939.308,351 939.308,355.37 " />
<polyline fill="none" vector-effect="none" points="964.65,351 964.65,355.37 " />
<polyline fill="none" vector-effect="none" points="987.004,351 987.004,355.37 " />
<polyline fill="none" vector-effect="none" points="1007,351 1007,355.37 " />
</g>

<g fill="#212121" fill-opacity="1" stroke="#212121" stroke-opacity="1" stroke-width="1" stroke-linecap="square" stroke-linejoin="bevel" transform="matrix(0.74973,0,0,0.75039,26.491,454.236)"
font-family="Helvetica" font-size="13" font-weight="400" font-style="normal" 
>
<text fill="#212121" fill-opacity="1" stroke="none" xml:space="preserve" x="0" y="0" font-family="Helvetica" font-size="13" font-weight="400" font-style="normal" 
 >10</text>
</g>

<g fill="#212121" fill-opacity="1" stroke="#212121" stroke-opacity="1" stroke-width="1" stroke-linecap="square" stroke-linejoin="bevel" transform="matrix(0.74973,0,0,0.75039,36.9872,449.733)"
font-family="Helvetica" font-size="10" font-weight="400" font-style="normal" 
>
<text fill="#212121" fill-opacity="1" stroke="none" xml:space="preserve" x="0" y="-0.3125" font-family="Helvetica" font-size="10" font-weight="400" font-style="normal" 
 >-1</text>
</g>

<g fill="#212121" fill-opacity="1" stroke="#212121" stroke-opacity="1" stroke-width="1" stroke-linecap="square" stroke-linejoin="bevel" transform="matrix(0.74973,0,0,0.75039,355.623,454.236)"
font-family="Helvetica" font-size="13" font-weight="400" font-style="normal" 
>
<text fill="#212121" fill-opacity="1" stroke="none" xml:space="preserve" x="0" y="0" font-family="Helvetica" font-size="13" font-weight="400" font-style="normal" 
 >10</text>
</g>

<g fill="#212121" fill-opacity="1" stroke="#212121" stroke-opacity="1" stroke-width="1" stroke-linecap="square" stroke-linejoin="bevel" transform="matrix(0.74973,0,0,0.75039,366.119,449.733)"
font-family="Helvetica" font-size="10" font-weight="400" font-style="normal" 
>
<text fill="#212121" fill-opacity="1" stroke="none" xml:space="preserve" x="0" y="-0.3125" font-family="Helvetica" font-size="10" font-weight="400" font-style="normal" 
 >0</text>
</g>

<g fill="#212121" fill-opacity="1" stroke="#212121" stroke-opacity="1" stroke-width="1" stroke-linecap="square" stroke-linejoin="bevel" transform="matrix(0.74973,0,0,0.75039,683.255,454.236)"
font-family="Helvetica" font-size="13" font-weight="400" font-style="normal" 
>
<text fill="#212121" fill-opacity="1" stroke="none" xml:space="preserve" x="0" y="0" font-family="Helvetica" font-size="13" font-weight="400" font-style="normal" 
 >10</text>
</g>

<g fill="#212121" fill-opacity="1" stroke="#212121" stroke-opacity="1" stroke-width="1" stroke-linecap="square" stroke-linejoin="bevel" transform="matrix(0.74973,0,0,0.75039,693.751,449.733)"
font-family="Helvetica" font-size="10" font-weight="400" font-style="normal" 
>
<text fill="#212121" fill-opacity="1" stroke="none" xml:space="preserve" x="0" y="-0.3125" font-family="Helvetica" font-size="10" font-weight="400" font-style="normal" 
 >1</text>
</g>

<g fill="#212121" fill-opacity="1" stroke="#212121" stroke-opacity="1" stroke-width="0.666667" stroke-linecap="square" stroke-linejoin="round" transform="matrix(0.74973,0,0,0.75039,-64.2264,-8.75533)"
font-family="Helvetica" font-size="10" font-weight="400" font-style="normal" 
>
<polyline fill="none" vector-effect="none" points="133,598 133,351 " />
<polyline fill="none" vector-effect="none" points="1007,598 1007,351 " />
<polyline fill="none" vector-effect="none" points="133,598 141.74,598 " />
<polyline fill="none" vector-effect="none" points="133,548.6 141.74,548.6 " />
<polyline fill="none" vector-effect="none" points="133,499.2 141.74,499.2 " />
<polyline fill="none" vector-effect="none" points="133,449.8 141.74,449.8 " />
<polyline fill="none" vector-effect="none" points="133,400.4 141.74,400.4 " />
<polyline fill="none" vector-effect="none" points="133,351 141.74,351 " />
<polyline fill="none" vector-effect="none" points="1007,598 998.26,598 " />
<polyline fill="none" vector-effect="none" points="1007,548.6 998.26,548.6 " />
<polyline fill="none" vector-effect="none" points="1007,499.2 998.26,499.2 " />
<polyline fill="none" vector-effect="none" points="1007,449.8 998.26,449.8 " />
<polyline fill="none" vector-effect="none" points="1007,400.4 998.26,400.4 " />
<polyline fill="none" vector-effect="none" points="1007,351 998.26,351 " />
</g>

<g fill="#212121" fill-opacity="1" stroke="#212121" stroke-opacity="1" stroke-width="1" stroke-linecap="square" stroke-linejoin="bevel" transform="matrix(0.74973,0,0,0.75039,17.2443,442.605)"
font-family="Helvetica" font-size="13" font-weight="400" font-style="normal" 
>
<text fill="#212121" fill-opacity="1" stroke="none" xml:space="preserve" x="0" y="0" font-family="Helvetica" font-size="13" font-weight="400" font-style="normal" 
 >-90</text>
</g>

<g fill="#212121" fill-opacity="1" stroke="#212121" stroke-opacity="1" stroke-width="1" stroke-linecap="square" stroke-linejoin="bevel" transform="matrix(0.74973,0,0,0.75039,26.2411,405.535)"
font-family="Helvetica" font-size="13" font-weight="400" font-style="normal" 
>
<text fill="#212121" fill-opacity="1" stroke="none" xml:space="preserve" x="0" y="0" font-family="Helvetica" font-size="13" font-weight="400" font-style="normal" 
 >0</text>
</g>

<g fill="#212121" fill-opacity="1" stroke="#212121" stroke-opacity="1" stroke-width="1" stroke-linecap="square" stroke-linejoin="bevel" transform="matrix(0.74973,0,0,0.75039,20.993,368.466)"
font-family="Helvetica" font-size="13" font-weight="400" font-style="normal" 
>
<text fill="#212121" fill-opacity="1" stroke="none" xml:space="preserve" x="0" y="0" font-family="Helvetica" font-size="13" font-weight="400" font-style="normal" 
 >90</text>
</g>

<g fill="#212121" fill-opacity="1" stroke="#212121" stroke-opacity="1" stroke-width="1" stroke-linecap="square" stroke-linejoin="bevel" transform="matrix(0.74973,0,0,0.75039,14.9951,331.397)"
font-family="Helvetica" font-size="13" font-weight="400" font-style="normal" 
>
<text fill="#212121" fill-opacity="1" stroke="none" xml:space="preserve" x="0" y="0" font-family="Helvetica" font-size="13" font-weight="400" font-style="normal" 
 >180</text>
</g>

<g fill="#212121" fill-opacity="1" stroke="#212121" stroke-opacity="1" stroke-width="1" stroke-linecap="square" stroke-linejoin="bevel" transform="matrix(0.74973,0,0,0.75039,14.9951,294.327)"
font-family="Helvetica" font-size="13" font-weight="400" font-style="normal" 
>
<text fill="#212121" fill-opacity="1" stroke="none" xml:space="preserve" x="0" y="0" font-family="Helvetica" font-size="13" font-weight="400" font-style="normal" 
 >270</text>
</g>

<g fill="#212121" fill-opacity="1" stroke="#212121" stroke-opacity="1" stroke-width="1" stroke-linecap="square" stroke-linejoin="bevel" transform="matrix(0.74973,0,0,0.75039,14.9951,257.258)"
font-family="Helvetica" font-size="13" font-weight="400" font-style="normal" 
>
<text fill="#212121" fill-opacity="1" stroke="none" xml:space="preserve" x="0" y="0" font-family="Helvetica" font-size="13" font-weight="400" font-style="normal" 
 >360</text>
</g>

<g fill="#212121" fill-opacity="1" stroke="#212121" stroke-opacity="1" stroke-width="1" stroke-linecap="square" stroke-linejoin="bevel" transform="matrix(0,-0.75039,0.74973,0,8.9973,375.82)"
font-family="Helvetica" font-size="14" font-weight="400" font-style="normal" 
>
<text fill="#212121" fill-opacity="1" stroke="none" xml:space="preserve" x="0" y="-0.234375" font-family="Helvetica" font-size="14" font-weight="400" font-style="normal" 
 >Phase (deg)</text>
</g>

<g fill="none" stroke="#1171be" stroke-opacity="1" stroke-width="0.666667" stroke-linecap="butt" stroke-linejoin="round" transform="matrix(0.74973,0,0,0.75039,-64.2264,-8.75533)"
font-family="Helvetica" font-size="14" font-weight="400" font-style="normal" 
>
<polyline fill="none" vector-effect="none" points="133,366.711 154.228,368.513 183.926,371.448 213.624,374.863 243.322,378.827 273.02,383.417 302.718,388.714 332.416,394.799 362.114,401.747 391.812,409.618 421.51,418.444 451.208,428.219 480.906,438.877 510.604,450.286 540.302,462.247 570,474.5 599.698,486.753 629.396,498.714 659.094,510.124 688.792,520.781 718.49,530.556 748.189,539.383 777.887,547.253 807.585,554.201 837.283,560.286 866.981,565.583 896.679,570.173 926.377,574.137 956.075,577.552 985.773,580.487 1007,582.289 " />
</g>
</g>
</svg>
