<?xml version="1.0" encoding="UTF-8" standalone="no"?>
<svg width="250.119mm" height="165.806mm"
 viewBox="0 0 709 470"
 xmlns="http://www.w3.org/2000/svg" xmlns:xlink="http://www.w3.org/1999/xlink"  version="1.2" baseProfile="tiny">
<title>Qt SVG Document</title>
<desc>MATLAB, The MathWorks, Inc. Version 25.2.0.3042426 R2025b Update 1</desc>
<defs>
</defs>
<g fill="none" stroke="black" stroke-width="1" fill-rule="evenodd" stroke-linecap="square" stroke-linejoin="bevel" >

<g fill="#ffffff" fill-opacity="1" stroke="none" transform="matrix(0.749867,0,0,0.750036,-48.9911,-8.7505)"
font-family=".AppleSystemUIFont" font-size="13" font-weight="400" font-style="normal" 
>
<path vector-effect="none" fill-rule="evenodd" d="M64,10 L1011,10 L1011,637 L64,637 L64,10"/>
</g>

<g fill="#212121" fill-opacity="1" stroke="#212121" stroke-opacity="1" stroke-width="1" stroke-linecap="square" stroke-linejoin="bevel" transform="matrix(0.749867,0,0,0.750036,337.04,9.00036)"
font-family="Helvetica" font-size="14" font-weight="700" font-style="normal" 
>
<text fill="#212121" fill-opacity="1" stroke="none" xml:space="preserve" x="0" y="-0.234375" font-family="Helvetica" font-size="14" font-weight="700" font-style="normal" 
 >Nyquist Diagram</text>
</g>

<g fill="#212121" fill-opacity="1" stroke="#212121" stroke-opacity="1" stroke-width="1" stroke-linecap="square" stroke-linejoin="bevel" transform="matrix(0.749867,0,0,0.750036,356.911,468)"
font-family="Helvetica" font-size="14" font-weight="400" font-style="normal" 
>
<text fill="#212121" fill-opacity="1" stroke="none" xml:space="preserve" x="0" y="-0.234375" font-family="Helvetica" font-size="14" font-weight="400" font-style="normal" 
 >Real Axis</text>
</g>

<g fill="#212121" fill-opacity="1" stroke="#212121" stroke-opacity="1" stroke-width="1" stroke-linecap="square" stroke-linejoin="bevel" transform="matrix(0,-0.750036,0.749867,0,8.99867,271.689)"
font-family="Helvetica" font-size="14" font-weight="400" font-style="normal" 
>
<text fill="#212121" fill-opacity="1" stroke="none" xml:space="preserve" x="0" y="-0.234375" font-family="Helvetica" font-size="14" font-weight="400" font-style="normal" 
 >Imaginary Axis</text>
</g>

<g fill="#ffffff" fill-opacity="1" stroke="none" transform="matrix(7.49867e-05,0,0,7.50036e-05,-48.9911,-8.7505)"
font-family="Helvetica" font-size="14" font-weight="400" font-style="normal" 
>
<path vector-effect="none" fill-rule="evenodd" d="M1.33e+06,580000 L1.33e+06,5.99e+06 L1.007e+07,5.99e+06 L1.007e+07,580000 L1.33e+06,580000"/>
</g>

<g fill="#212121" fill-opacity="1" stroke="#212121" stroke-opacity="1" stroke-width="0.666667" stroke-linecap="square" stroke-linejoin="round" transform="matrix(0.749867,0,0,0.750036,-48.9911,-8.7505)"
font-family="Helvetica" font-size="14" font-weight="400" font-style="normal" 
>
<polyline fill="none" vector-effect="none" points="133,599 1007,599 " />
<polyline fill="none" vector-effect="none" points="133,58 1007,58 " />
<polyline fill="none" vector-effect="none" points="133,599 133,590.26 " />
<polyline fill="none" vector-effect="none" points="220.4,599 220.4,590.26 " />
<polyline fill="none" vector-effect="none" points="307.8,599 307.8,590.26 " />
<polyline fill="none" vector-effect="none" points="395.2,599 395.2,590.26 " />
<polyline fill="none" vector-effect="none" points="482.6,599 482.6,590.26 " />
<polyline fill="none" vector-effect="none" points="570,599 570,590.26 " />
<polyline fill="none" vector-effect="none" points="657.4,599 657.4,590.26 " />
<polyline fill="none" vector-effect="none" points="744.8,599 744.8,590.26 " />
<polyline fill="none" vector-effect="none" points="832.2,599 832.2,590.26 " />
<polyline fill="none" vector-effect="none" points="919.6,599 919.6,590.26 " />
<polyline fill="none" vector-effect="none" points="1007,599 1007,590.26 " />
<polyline fill="none" vector-effect="none" points="133,58 133,66.74 " />
<polyline fill="none" vector-effect="none" points="220.4,58 220.4,66.74 " />
<polyline fill="none" vector-effect="none" points="307.8,58 307.8,66.74 " />
<polyline fill="none" vector-effect="none" points="395.2,58 395.2,66.74 " />
<polyline fill="none" vector-effect="none" points="482.6,58 482.6,66.74 " />
<polyline fill="none" vector-effect="none" points="570,58 570,66.74 " />
<polyline fill="none" vector-effect="none" points="657.4,58 657.4,66.74 " />
<polyline fill="none" vector-effect="none" points="744.8,58 744.8,66.74 " />
<polyline fill="none" vector-effect="none" points="832.2,58 832.2,66.74 " />
<polyline fill="none" vector-effect="none" points="919.6,58 919.6,66.74 " />
<polyline fill="none" vector-effect="none" points="1007,58 1007,66.74 " />
</g>

<g fill="#212121" fill-opacity="1" stroke="#212121" stroke-opacity="1" stroke-width="1" stroke-linecap="square" stroke-linejoin="bevel" transform="matrix(0.749867,0,0,0.750036,46.2421,452.022)"
font-family="Helvetica" font-size="13" font-weight="400" font-style="normal" 
>
<text fill="#212121" fill-opacity="1" stroke="none" xml:space="preserve" x="0" y="0" font-family="Helvetica" font-size="13" font-weight="400" font-style="normal" 
 >-1</text>
</g>

<g fill="#212121" fill-opacity="1" stroke="#212121" stroke-opacity="1" stroke-width="1" stroke-linecap="square" stroke-linejoin="bevel" transform="matrix(0.749867,0,0,0.750036,108.031,452.022)"
font-family="Helvetica" font-size="13" font-weight="400" font-style="normal" 
>
<text fill="#212121" fill-opacity="1" stroke="none" xml:space="preserve" x="0" y="0" font-family="Helvetica" font-size="13" font-weight="400" font-style="normal" 
 >-0.8</text>
</g>

<g fill="#212121" fill-opacity="1" stroke="#212121" stroke-opacity="1" stroke-width="1" stroke-linecap="square" stroke-linejoin="bevel" transform="matrix(0.749867,0,0,0.750036,173.57,452.022)"
font-family="Helvetica" font-size="13" font-weight="400" font-style="normal" 
>
<text fill="#212121" fill-opacity="1" stroke="none" xml:space="preserve" x="0" y="0" font-family="Helvetica" font-size="13" font-weight="400" font-style="normal" 
 >-0.6</text>
</g>

<g fill="#212121" fill-opacity="1" stroke="#212121" stroke-opacity="1" stroke-width="1" stroke-linecap="square" stroke-linejoin="bevel" transform="matrix(0.749867,0,0,0.750036,239.108,452.022)"
font-family="Helvetica" font-size="13" font-weight="400" font-style="normal" 
>
<text fill="#212121" fill-opacity="1" stroke="none" xml:space="preserve" x="0" y="0" font-family="Helvetica" font-size="13" font-weight="400" font-style="normal" 
 >-0.4</text>
</g>

<g fill="#212121" fill-opacity="1" stroke="#212121" stroke-opacity="1" stroke-width="1" stroke-linecap="square" stroke-linejoin="bevel" transform="matrix(0.749867,0,0,0.750036,304.646,452.022)"
font-family="Helvetica" font-size="13" font-weight="400" font-style="normal" 
>
<text fill="#212121" fill-opacity="1" stroke="none" xml:space="preserve" x="0" y="0" font-family="Helvetica" font-size="13" font-weight="400" font-style="normal" 
 >-0.2</text>
</g>

<g fill="#212121" fill-opacity="1" stroke="#212121" stroke-opacity="1" stroke-width="1" stroke-linecap="square" stroke-linejoin="bevel" transform="matrix(0.749867,0,0,0.750036,375.809,452.022)"
font-family="Helvetica" font-size="13" font-weight="400" font-style="normal" 
>
<text fill="#212121" fill-opacity="1" stroke="none" xml:space="preserve" x="0" y="0" font-family="Helvetica" font-size="13" font-weight="400" font-style="normal" 
 >0</text>
</g>

<g fill="#212121" fill-opacity="1" stroke="#212121" stroke-opacity="1" stroke-width="1" stroke-linecap="square" stroke-linejoin="bevel" transform="matrix(0.749867,0,0,0.750036,437.223,452.022)"
font-family="Helvetica" font-size="13" font-weight="400" font-style="normal" 
>
<text fill="#212121" fill-opacity="1" stroke="none" xml:space="preserve" x="0" y="0" font-family="Helvetica" font-size="13" font-weight="400" font-style="normal" 
 >0.2</text>
</g>

<g fill="#212121" fill-opacity="1" stroke="#212121" stroke-opacity="1" stroke-width="1" stroke-linecap="square" stroke-linejoin="bevel" transform="matrix(0.749867,0,0,0.750036,502.761,452.022)"
font-family="Helvetica" font-size="13" font-weight="400" font-style="normal" 
>
<text fill="#212121" fill-opacity="1" stroke="none" xml:space="preserve" x="0" y="0" font-family="Helvetica" font-size="13" font-weight="400" font-style="normal" 
 >0.4</text>
</g>

<g fill="#212121" fill-opacity="1" stroke="#212121" stroke-opacity="1" stroke-width="1" stroke-linecap="square" stroke-linejoin="bevel" transform="matrix(0.749867,0,0,0.750036,568.3,452.022)"
font-family="Helvetica" font-size="13" font-weight="400" font-style="normal" 
>
<text fill="#212121" fill-opacity="1" stroke="none" xml:space="preserve" x="0" y="0" font-family="Helvetica" font-size="13" font-weight="400" font-style="normal" 
 >0.6</text>
</g>

<g fill="#212121" fill-opacity="1" stroke="#212121" stroke-opacity="1" stroke-width="1" stroke-linecap="square" stroke-linejoin="bevel" transform="matrix(0.749867,0,0,0.750036,633.838,452.022)"
font-family="Helvetica" font-size="13" font-weight="400" font-style="normal" 
>
<text fill="#212121" fill-opacity="1" stroke="none" xml:space="preserve" x="0" y="0" font-family="Helvetica" font-size="13" font-weight="400" font-style="normal" 
 >0.8</text>
</g>

<g fill="#212121" fill-opacity="1" stroke="#212121" stroke-opacity="1" stroke-width="1" stroke-linecap="square" stroke-linejoin="bevel" transform="matrix(0.749867,0,0,0.750036,703.501,452.022)"
font-family="Helvetica" font-size="13" font-weight="400" font-style="normal" 
>
<text fill="#212121" fill-opacity="1" stroke="none" xml:space="preserve" x="0" y="0" font-family="Helvetica" font-size="13" font-weight="400" font-style="normal" 
 >1</text>
</g>

<g fill="#212121" fill-opacity="1" stroke="#212121" stroke-opacity="1" stroke-width="0.666667" stroke-linecap="square" stroke-linejoin="round" transform="matrix(0.749867,0,0,0.750036,-48.9911,-8.7505)"
font-family="Helvetica" font-size="13" font-weight="400" font-style="normal" 
>
<polyline fill="none" vector-effect="none" points="133,599 133,58 " />
<polyline fill="none" vector-effect="none" points="1007,599 1007,58 " />
<polyline fill="none" vector-effect="none" points="133,599 141.74,599 " />
<polyline fill="none" vector-effect="none" points="133,544.9 141.74,544.9 " />
<polyline fill="none" vector-effect="none" points="133,490.8 141.74,490.8 " />
<polyline fill="none" vector-effect="none" points="133,436.7 141.74,436.7 " />
<polyline fill="none" vector-effect="none" points="133,382.6 141.74,382.6 " />
<polyline fill="none" vector-effect="none" points="133,328.5 141.74,328.5 " />
<polyline fill="none" vector-effect="none" points="133,274.4 141.74,274.4 " />
<polyline fill="none" vector-effect="none" points="133,220.3 141.74,220.3 " />
<polyline fill="none" vector-effect="none" points="133,166.2 141.74,166.2 " />
<polyline fill="none" vector-effect="none" points="133,112.1 141.74,112.1 " />
<polyline fill="none" vector-effect="none" points="133,58 141.74,58 " />
<polyline fill="none" vector-effect="none" points="1007,599 998.26,599 " />
<polyline fill="none" vector-effect="none" points="1007,544.9 998.26,544.9 " />
<polyline fill="none" vector-effect="none" points="1007,490.8 998.26,490.8 " />
<polyline fill="none" vector-effect="none" points="1007,436.7 998.26,436.7 " />
<polyline fill="none" vector-effect="none" points="1007,382.6 998.26,382.6 " />
<polyline fill="none" vector-effect="none" points="1007,328.5 998.26,328.5 " />
<polyline fill="none" vector-effect="none" points="1007,274.4 998.26,274.4 " />
<polyline fill="none" vector-effect="none" points="1007,220.3 998.26,220.3 " />
<polyline fill="none" vector-effect="none" points="1007,166.2 998.26,166.2 " />
<polyline fill="none" vector-effect="none" points="1007,112.1 998.26,112.1 " />
<polyline fill="none" vector-effect="none" points="1007,58 998.26,58 " />
</g>

<g fill="#212121" fill-opacity="1" stroke="#212121" stroke-opacity="1" stroke-width="1" stroke-linecap="square" stroke-linejoin="bevel" transform="matrix(0.749867,0,0,0.750036,37.7436,443.146)"
font-family="Helvetica" font-size="13" font-weight="400" font-style="normal" 
>
<text fill="#212121" fill-opacity="1" stroke="none" xml:space="preserve" x="0" y="0" font-family="Helvetica" font-size="13" font-weight="400" font-style="normal" 
 >-1</text>
</g>

<g fill="#212121" fill-opacity="1" stroke="#212121" stroke-opacity="1" stroke-width="1" stroke-linecap="square" stroke-linejoin="bevel" transform="matrix(0.749867,0,0,0.750036,30.2449,402.569)"
font-family="Helvetica" font-size="13" font-weight="400" font-style="normal" 
>
<text fill="#212121" fill-opacity="1" stroke="none" xml:space="preserve" x="0" y="0" font-family="Helvetica" font-size="13" font-weight="400" font-style="normal" 
 >-0.8</text>
</g>

<g fill="#212121" fill-opacity="1" stroke="#212121" stroke-opacity="1" stroke-width="1" stroke-linecap="square" stroke-linejoin="bevel" transform="matrix(0.749867,0,0,0.750036,30.2449,361.992)"
font-family="Helvetica" font-size="13" font-weight="400" font-style="normal" 
>
<text fill="#212121" fill-opacity="1" stroke="none" xml:space="preserve" x="0" y="0" font-family="Helvetica" font-size="13" font-weight="400" font-style="normal" 
 >-0.6</text>
</g>

<g fill="#212121" fill-opacity="1" stroke="#212121" stroke-opacity="1" stroke-width="1" stroke-linecap="square" stroke-linejoin="bevel" transform="matrix(0.749867,0,0,0.750036,30.2449,321.415)"
font-family="Helvetica" font-size="13" font-weight="400" font-style="normal" 
>
<text fill="#212121" fill-opacity="1" stroke="none" xml:space="preserve" x="0" y="0" font-family="Helvetica" font-size="13" font-weight="400" font-style="normal" 
 >-0.4</text>
</g>

<g fill="#212121" fill-opacity="1" stroke="#212121" stroke-opacity="1" stroke-width="1" stroke-linecap="square" stroke-linejoin="bevel" transform="matrix(0.749867,0,0,0.750036,30.2449,280.838)"
font-family="Helvetica" font-size="13" font-weight="400" font-style="normal" 
>
<text fill="#212121" fill-opacity="1" stroke="none" xml:space="preserve" x="0" y="0" font-family="Helvetica" font-size="13" font-weight="400" font-style="normal" 
 >-0.2</text>
</g>

<g fill="#212121" fill-opacity="1" stroke="#212121" stroke-opacity="1" stroke-width="1" stroke-linecap="square" stroke-linejoin="bevel" transform="matrix(0.749867,0,0,0.750036,41.4929,240.262)"
font-family="Helvetica" font-size="13" font-weight="400" font-style="normal" 
>
<text fill="#212121" fill-opacity="1" stroke="none" xml:space="preserve" x="0" y="0" font-family="Helvetica" font-size="13" font-weight="400" font-style="normal" 
 >0</text>
</g>

<g fill="#212121" fill-opacity="1" stroke="#212121" stroke-opacity="1" stroke-width="1" stroke-linecap="square" stroke-linejoin="bevel" transform="matrix(0.749867,0,0,0.750036,33.2444,199.685)"
font-family="Helvetica" font-size="13" font-weight="400" font-style="normal" 
>
<text fill="#212121" fill-opacity="1" stroke="none" xml:space="preserve" x="0" y="0" font-family="Helvetica" font-size="13" font-weight="400" font-style="normal" 
 >0.2</text>
</g>

<g fill="#212121" fill-opacity="1" stroke="#212121" stroke-opacity="1" stroke-width="1" stroke-linecap="square" stroke-linejoin="bevel" transform="matrix(0.749867,0,0,0.750036,33.2444,159.108)"
font-family="Helvetica" font-size="13" font-weight="400" font-style="normal" 
>
<text fill="#212121" fill-opacity="1" stroke="none" xml:space="preserve" x="0" y="0" font-family="Helvetica" font-size="13" font-weight="400" font-style="normal" 
 >0.4</text>
</g>

<g fill="#212121" fill-opacity="1" stroke="#212121" stroke-opacity="1" stroke-width="1" stroke-linecap="square" stroke-linejoin="bevel" transform="matrix(0.749867,0,0,0.750036,33.2444,118.531)"
font-family="Helvetica" font-size="13" font-weight="400" font-style="normal" 
>
<text fill="#212121" fill-opacity="1" stroke="none" xml:space="preserve" x="0" y="0" font-family="Helvetica" font-size="13" font-weight="400" font-style="normal" 
 >0.6</text>
</g>

<g fill="#212121" fill-opacity="1" stroke="#212121" stroke-opacity="1" stroke-width="1" stroke-linecap="square" stroke-linejoin="bevel" transform="matrix(0.749867,0,0,0.750036,33.2444,77.9537)"
font-family="Helvetica" font-size="13" font-weight="400" font-style="normal" 
>
<text fill="#212121" fill-opacity="1" stroke="none" xml:space="preserve" x="0" y="0" font-family="Helvetica" font-size="13" font-weight="400" font-style="normal" 
 >0.8</text>
</g>

<g fill="#212121" fill-opacity="1" stroke="#212121" stroke-opacity="1" stroke-width="1" stroke-linecap="square" stroke-linejoin="bevel" transform="matrix(0.749867,0,0,0.750036,41.4929,37.3767)"
font-family="Helvetica" font-size="13" font-weight="400" font-style="normal" 
>
<text fill="#212121" fill-opacity="1" stroke="none" xml:space="preserve" x="0" y="0" font-family="Helvetica" font-size="13" font-weight="400" font-style="normal" 
 >1</text>
</g>

<g fill="#7d7d7d" fill-opacity="0.701961" stroke="#7d7d7d" stroke-opacity="0.701961" stroke-dasharray="1,3" stroke-dashoffset="0" stroke-width="0.666667" stroke-linecap="butt" stroke-linejoin="round" transform="matrix(0.749867,0,0,0.750036,-48.9911,-8.7505)"
font-family="Helvetica" font-size="13" font-weight="400" font-style="normal" 
>
<polyline fill="none" vector-effect="none" points="133,328.5 1007,328.5 " />
<polyline fill="none" vector-effect="none" points="570,599 570,58 " />
</g>

<g fill="#ff453a" fill-opacity="1" stroke="#ff453a" stroke-opacity="1" stroke-width="2" stroke-linecap="butt" stroke-linejoin="miter" stroke-miterlimit="2" transform="matrix(0.749867,0,0,0.750036,-48.9911,-8.7505)"
font-family="Helvetica" font-size="13" font-weight="400" font-style="normal" 
>
<polyline fill="none" vector-effect="none" points="133,321.5 133,335.5 " />
<polyline fill="none" vector-effect="none" points="126,328.5 140,328.5 " />
</g>

<g fill="#1171be" fill-opacity="1" stroke="none" transform="matrix(7.49867e-05,0,0,7.50036e-05,-48.9911,-8.7505)"
font-family="Helvetica" font-size="13" font-weight="400" font-style="normal" 
>
<path vector-effect="none" fill-rule="evenodd" d="M2.31592e+06,4.2079e+06 L2.31278e+06,4.33581e+06 L2.42455e+06,4.27459e+06 L2.31592e+06,4.2079e+06"/>
</g>

<g fill="none" stroke="#1171be" stroke-opacity="1" stroke-width="0.666667" stroke-linecap="square" stroke-linejoin="miter" stroke-miterlimit="2" transform="matrix(0.749867,0,0,0.750036,-48.9911,-8.7505)"
font-family="Helvetica" font-size="13" font-weight="400" font-style="normal" 
>
<polyline fill="none" vector-effect="none" points="231.592,420.79 231.278,433.581 242.455,427.459 231.592,420.79 " />
</g>

<g fill="#1171be" fill-opacity="1" stroke="none" transform="matrix(7.49867e-05,0,0,7.50036e-05,-48.9911,-8.7505)"
font-family="Helvetica" font-size="13" font-weight="400" font-style="normal" 
>
<path vector-effect="none" fill-rule="evenodd" d="M2.38624e+06,2.23237e+06 L2.27761e+06,2.29906e+06 L2.38939e+06,2.36027e+06 L2.38624e+06,2.23237e+06"/>
</g>

<g fill="none" stroke="#1171be" stroke-opacity="1" stroke-width="0.666667" stroke-linecap="square" stroke-linejoin="miter" stroke-miterlimit="2" transform="matrix(0.749867,0,0,0.750036,-48.9911,-8.7505)"
font-family="Helvetica" font-size="13" font-weight="400" font-style="normal" 
>
<polyline fill="none" vector-effect="none" points="238.624,223.237 227.761,229.906 238.939,236.027 238.624,223.237 " />
</g>

<g fill="none" stroke="#1171be" stroke-opacity="1" stroke-width="0.666667" stroke-linecap="butt" stroke-linejoin="round" transform="matrix(0.749867,0,0,0.750036,-48.9911,-8.7505)"
font-family="Helvetica" font-size="13" font-weight="400" font-style="normal" 
>
<polyline fill="none" vector-effect="none" points="570,328.5 570,328.5 570,328.5 570,328.5 570,328.495 570.009,327.959 570.872,323.118 571.127,322.391 571.455,321.569 571.879,320.64 572.425,319.594 573.129,318.418 574.036,317.102 575.201,315.635 576.699,314.01 578.619,312.226 581.074,310.289 584.203,308.219 588.177,306.057 593.196,303.875 599.49,301.788 607.311,299.972 616.913,298.69 628.51,298.313 642.211,299.35 657.911,302.463 675.129,308.471 692.806,318.3 709.058,332.856 720.977,352.788 724.579,378.116 715.11,407.747 687.881,439.017 639.711,467.498 570.733,487.37 485.867,492.573 395.045,478.547 311.542,443.97 248.704,391.627 216.315,327.876 218.207,260.901 252.009,198.545 310.778,146.633 385.491,108.252 467.317,83.9456 549.064,72.4254 625.73,71.4052 694.409,78.2918 753.866,90.6385 804.023,106.377 845.506,123.891 879.298,141.995 906.505,159.868 928.213,176.978 945.413,193.008 958.968,207.792 969.607,221.273 977.929,233.46 984.424,244.407 989.482,254.192 993.416,262.906 996.471,270.645 998.843,277.502 1000.68,283.568 1002.11,288.927 1003.21,293.656 1004.07,297.828 1004.73,301.504 1006.98,325.795 1007,328.473 1007,328.5 1007,328.5 1007,328.5 1007,328.5 1007,328.5 " />
<polyline fill="none" vector-effect="none" points="1007,328.5 1007,328.5 1007,328.5 1007,328.5 1007,328.5 1007,328.527 1006.98,331.205 1004.73,355.496 1004.07,359.172 1003.21,363.344 1002.11,368.073 1000.68,373.432 998.843,379.498 996.471,386.355 993.416,394.094 989.482,402.808 984.424,412.593 977.929,423.54 969.607,435.727 958.968,449.208 945.413,463.992 928.213,480.022 906.505,497.132 879.298,515.005 845.506,533.109 804.023,550.623 753.866,566.362 694.409,578.708 625.73,585.595 549.064,584.575 467.317,573.054 385.491,548.748 310.778,510.367 252.009,458.455 218.207,396.099 216.315,329.124 248.704,265.373 311.542,213.03 395.045,178.453 485.867,164.427 570.733,169.63 639.711,189.502 687.881,217.983 715.11,249.253 724.579,278.884 720.977,304.212 709.058,324.144 692.806,338.7 675.129,348.529 657.911,354.537 642.211,357.65 628.51,358.687 616.913,358.31 607.311,357.028 599.49,355.212 593.196,353.125 588.177,350.943 584.203,348.781 581.074,346.711 578.619,344.774 576.699,342.99 575.201,341.365 574.036,339.898 573.129,338.582 572.425,337.406 571.879,336.36 571.455,335.431 571.127,334.609 570.872,333.882 570.009,329.041 570,328.505 570,328.5 570,328.5 570,328.5 570,328.5 " />
</g>
</g>
</svg>
