<?xml version="1.0" encoding="UTF-8" standalone="no"?>
<svg width="251.883mm" height="166.511mm"
 viewBox="0 0 714 472"
 xmlns="http://www.w3.org/2000/svg" xmlns:xlink="http://www.w3.org/1999/xlink"  version="1.2" baseProfile="tiny">
<title>Qt SVG Document</title>
<desc>MATLAB, The MathWorks, Inc. Version 25.2.0.3042426 R2025b Update 1</desc>
<defs>
</defs>
<g fill="none" stroke="black" stroke-width="1" fill-rule="evenodd" stroke-linecap="square" stroke-linejoin="bevel" >

<g fill="#ffffff" fill-opacity="1" stroke="none" transform="matrix(0.749472,0,0,0.750036,-48.9645,-8.7505)"
font-family=".AppleSystemUIFont" font-size="13" font-weight="400" font-style="normal" 
>
<path vector-effect="none" fill-rule="evenodd" d="M64,10 L1017,10 L1017,640 L64,640 L64,10"/>
</g>

<g fill="#212121" fill-opacity="1" stroke="#212121" stroke-opacity="1" stroke-width="1" stroke-linecap="square" stroke-linejoin="bevel" transform="matrix(0.749472,0,0,0.750036,340.95,9.00036)"
font-family="Helvetica" font-size="14" font-weight="700" font-style="normal" 
>
<text fill="#212121" fill-opacity="1" stroke="none" xml:space="preserve" x="0" y="-0.234375" font-family="Helvetica" font-size="14" font-weight="700" font-style="normal" 
 >Step Response</text>
</g>

<g fill="#212121" fill-opacity="1" stroke="#212121" stroke-opacity="1" stroke-width="1" stroke-linecap="square" stroke-linejoin="bevel" transform="matrix(0.749472,0,0,0.750036,342.823,468)"
font-family="Helvetica" font-size="14" font-weight="400" font-style="normal" 
>
<text fill="#212121" fill-opacity="1" stroke="none" xml:space="preserve" x="0" y="-0.234375" font-family="Helvetica" font-size="14" font-weight="400" font-style="normal" 
 >Time (seconds)</text>
</g>

<g fill="#212121" fill-opacity="1" stroke="#212121" stroke-opacity="1" stroke-width="1" stroke-linecap="square" stroke-linejoin="bevel" transform="matrix(0,-0.750036,0.749472,0,8.99472,260.814)"
font-family="Helvetica" font-size="14" font-weight="400" font-style="normal" 
>
<text fill="#212121" fill-opacity="1" stroke="none" xml:space="preserve" x="0" y="-0.234375" font-family="Helvetica" font-size="14" font-weight="400" font-style="normal" 
 >Amplitude</text>
</g>

<g fill="#ffffff" fill-opacity="1" stroke="none" transform="matrix(7.49472e-05,0,0,7.50036e-05,-48.9645,-8.7505)"
font-family="Helvetica" font-size="14" font-weight="400" font-style="normal" 
>
<path vector-effect="none" fill-rule="evenodd" d="M1.33e+06,580000 L1.33e+06,5.99e+06 L1.008e+07,5.99e+06 L1.008e+07,580000 L1.33e+06,580000"/>
</g>

<g fill="#212121" fill-opacity="1" stroke="#212121" stroke-opacity="1" stroke-width="0.666667" stroke-linecap="square" stroke-linejoin="round" transform="matrix(0.749472,0,0,0.750036,-48.9645,-8.7505)"
font-family="Helvetica" font-size="14" font-weight="400" font-style="normal" 
>
<polyline fill="none" vector-effect="none" points="133,599 1008,599 " />
<polyline fill="none" vector-effect="none" points="133,58 1008,58 " />
<polyline fill="none" vector-effect="none" points="133,599 133,590.25 " />
<polyline fill="none" vector-effect="none" points="258,599 258,590.25 " />
<polyline fill="none" vector-effect="none" points="383,599 383,590.25 " />
<polyline fill="none" vector-effect="none" points="508,599 508,590.25 " />
<polyline fill="none" vector-effect="none" points="633,599 633,590.25 " />
<polyline fill="none" vector-effect="none" points="758,599 758,590.25 " />
<polyline fill="none" vector-effect="none" points="883,599 883,590.25 " />
<polyline fill="none" vector-effect="none" points="1008,599 1008,590.25 " />
<polyline fill="none" vector-effect="none" points="133,58 133,66.75 " />
<polyline fill="none" vector-effect="none" points="258,58 258,66.75 " />
<polyline fill="none" vector-effect="none" points="383,58 383,66.75 " />
<polyline fill="none" vector-effect="none" points="508,58 508,66.75 " />
<polyline fill="none" vector-effect="none" points="633,58 633,66.75 " />
<polyline fill="none" vector-effect="none" points="758,58 758,66.75 " />
<polyline fill="none" vector-effect="none" points="883,58 883,66.75 " />
<polyline fill="none" vector-effect="none" points="1008,58 1008,66.75 " />
</g>

<g fill="#212121" fill-opacity="1" stroke="#212121" stroke-opacity="1" stroke-width="1" stroke-linecap="square" stroke-linejoin="bevel" transform="matrix(0.749472,0,0,0.750036,48.0922,452.022)"
font-family="Helvetica" font-size="13" font-weight="400" font-style="normal" 
>
<text fill="#212121" fill-opacity="1" stroke="none" xml:space="preserve" x="0" y="0" font-family="Helvetica" font-size="13" font-weight="400" font-style="normal" 
 >0</text>
</g>

<g fill="#212121" fill-opacity="1" stroke="#212121" stroke-opacity="1" stroke-width="1" stroke-linecap="square" stroke-linejoin="bevel" transform="matrix(0.749472,0,0,0.750036,141.776,452.022)"
font-family="Helvetica" font-size="13" font-weight="400" font-style="normal" 
>
<text fill="#212121" fill-opacity="1" stroke="none" xml:space="preserve" x="0" y="0" font-family="Helvetica" font-size="13" font-weight="400" font-style="normal" 
 >2</text>
</g>

<g fill="#212121" fill-opacity="1" stroke="#212121" stroke-opacity="1" stroke-width="1" stroke-linecap="square" stroke-linejoin="bevel" transform="matrix(0.749472,0,0,0.750036,235.46,452.022)"
font-family="Helvetica" font-size="13" font-weight="400" font-style="normal" 
>
<text fill="#212121" fill-opacity="1" stroke="none" xml:space="preserve" x="0" y="0" font-family="Helvetica" font-size="13" font-weight="400" font-style="normal" 
 >4</text>
</g>

<g fill="#212121" fill-opacity="1" stroke="#212121" stroke-opacity="1" stroke-width="1" stroke-linecap="square" stroke-linejoin="bevel" transform="matrix(0.749472,0,0,0.750036,329.144,452.022)"
font-family="Helvetica" font-size="13" font-weight="400" font-style="normal" 
>
<text fill="#212121" fill-opacity="1" stroke="none" xml:space="preserve" x="0" y="0" font-family="Helvetica" font-size="13" font-weight="400" font-style="normal" 
 >6</text>
</g>

<g fill="#212121" fill-opacity="1" stroke="#212121" stroke-opacity="1" stroke-width="1" stroke-linecap="square" stroke-linejoin="bevel" transform="matrix(0.749472,0,0,0.750036,422.828,452.022)"
font-family="Helvetica" font-size="13" font-weight="400" font-style="normal" 
>
<text fill="#212121" fill-opacity="1" stroke="none" xml:space="preserve" x="0" y="0" font-family="Helvetica" font-size="13" font-weight="400" font-style="normal" 
 >8</text>
</g>

<g fill="#212121" fill-opacity="1" stroke="#212121" stroke-opacity="1" stroke-width="1" stroke-linecap="square" stroke-linejoin="bevel" transform="matrix(0.749472,0,0,0.750036,513.889,452.022)"
font-family="Helvetica" font-size="13" font-weight="400" font-style="normal" 
>
<text fill="#212121" fill-opacity="1" stroke="none" xml:space="preserve" x="0" y="0" font-family="Helvetica" font-size="13" font-weight="400" font-style="normal" 
 >10</text>
</g>

<g fill="#212121" fill-opacity="1" stroke="#212121" stroke-opacity="1" stroke-width="1" stroke-linecap="square" stroke-linejoin="bevel" transform="matrix(0.749472,0,0,0.750036,607.573,452.022)"
font-family="Helvetica" font-size="13" font-weight="400" font-style="normal" 
>
<text fill="#212121" fill-opacity="1" stroke="none" xml:space="preserve" x="0" y="0" font-family="Helvetica" font-size="13" font-weight="400" font-style="normal" 
 >12</text>
</g>

<g fill="#212121" fill-opacity="1" stroke="#212121" stroke-opacity="1" stroke-width="1" stroke-linecap="square" stroke-linejoin="bevel" transform="matrix(0.749472,0,0,0.750036,701.257,452.022)"
font-family="Helvetica" font-size="13" font-weight="400" font-style="normal" 
>
<text fill="#212121" fill-opacity="1" stroke="none" xml:space="preserve" x="0" y="0" font-family="Helvetica" font-size="13" font-weight="400" font-style="normal" 
 >14</text>
</g>

<g fill="#212121" fill-opacity="1" stroke="#212121" stroke-opacity="1" stroke-width="0.666667" stroke-linecap="square" stroke-linejoin="round" transform="matrix(0.749472,0,0,0.750036,-48.9645,-8.7505)"
font-family="Helvetica" font-size="13" font-weight="400" font-style="normal" 
>
<polyline fill="none" vector-effect="none" points="133,599 133,58 " />
<polyline fill="none" vector-effect="none" points="1008,599 1008,58 " />
<polyline fill="none" vector-effect="none" points="133,599 141.75,599 " />
<polyline fill="none" vector-effect="none" points="133,521.714 141.75,521.714 " />
<polyline fill="none" vector-effect="none" points="133,444.429 141.75,444.429 " />
<polyline fill="none" vector-effect="none" points="133,367.143 141.75,367.143 " />
<polyline fill="none" vector-effect="none" points="133,289.857 141.75,289.857 " />
<polyline fill="none" vector-effect="none" points="133,212.571 141.75,212.571 " />
<polyline fill="none" vector-effect="none" points="133,135.286 141.75,135.286 " />
<polyline fill="none" vector-effect="none" points="133,58 141.75,58 " />
<polyline fill="none" vector-effect="none" points="1008,599 999.25,599 " />
<polyline fill="none" vector-effect="none" points="1008,521.714 999.25,521.714 " />
<polyline fill="none" vector-effect="none" points="1008,444.429 999.25,444.429 " />
<polyline fill="none" vector-effect="none" points="1008,367.143 999.25,367.143 " />
<polyline fill="none" vector-effect="none" points="1008,289.857 999.25,289.857 " />
<polyline fill="none" vector-effect="none" points="1008,212.571 999.25,212.571 " />
<polyline fill="none" vector-effect="none" points="1008,135.286 999.25,135.286 " />
<polyline fill="none" vector-effect="none" points="1008,58 999.25,58 " />
</g>

<g fill="#212121" fill-opacity="1" stroke="#212121" stroke-opacity="1" stroke-width="1" stroke-linecap="square" stroke-linejoin="bevel" transform="matrix(0.749472,0,0,0.750036,30.2298,443.146)"
font-family="Helvetica" font-size="13" font-weight="400" font-style="normal" 
>
<text fill="#212121" fill-opacity="1" stroke="none" xml:space="preserve" x="0" y="0" font-family="Helvetica" font-size="13" font-weight="400" font-style="normal" 
 >-0.4</text>
</g>

<g fill="#212121" fill-opacity="1" stroke="#212121" stroke-opacity="1" stroke-width="1" stroke-linecap="square" stroke-linejoin="bevel" transform="matrix(0.749472,0,0,0.750036,30.2298,385.179)"
font-family="Helvetica" font-size="13" font-weight="400" font-style="normal" 
>
<text fill="#212121" fill-opacity="1" stroke="none" xml:space="preserve" x="0" y="0" font-family="Helvetica" font-size="13" font-weight="400" font-style="normal" 
 >-0.2</text>
</g>

<g fill="#212121" fill-opacity="1" stroke="#212121" stroke-opacity="1" stroke-width="1" stroke-linecap="square" stroke-linejoin="bevel" transform="matrix(0.749472,0,0,0.750036,41.4719,327.212)"
font-family="Helvetica" font-size="13" font-weight="400" font-style="normal" 
>
<text fill="#212121" fill-opacity="1" stroke="none" xml:space="preserve" x="0" y="0" font-family="Helvetica" font-size="13" font-weight="400" font-style="normal" 
 >0</text>
</g>

<g fill="#212121" fill-opacity="1" stroke="#212121" stroke-opacity="1" stroke-width="1" stroke-linecap="square" stroke-linejoin="bevel" transform="matrix(0.749472,0,0,0.750036,33.2277,269.245)"
font-family="Helvetica" font-size="13" font-weight="400" font-style="normal" 
>
<text fill="#212121" fill-opacity="1" stroke="none" xml:space="preserve" x="0" y="0" font-family="Helvetica" font-size="13" font-weight="400" font-style="normal" 
 >0.2</text>
</g>

<g fill="#212121" fill-opacity="1" stroke="#212121" stroke-opacity="1" stroke-width="1" stroke-linecap="square" stroke-linejoin="bevel" transform="matrix(0.749472,0,0,0.750036,33.2277,211.278)"
font-family="Helvetica" font-size="13" font-weight="400" font-style="normal" 
>
<text fill="#212121" fill-opacity="1" stroke="none" xml:space="preserve" x="0" y="0" font-family="Helvetica" font-size="13" font-weight="400" font-style="normal" 
 >0.4</text>
</g>

<g fill="#212121" fill-opacity="1" stroke="#212121" stroke-opacity="1" stroke-width="1" stroke-linecap="square" stroke-linejoin="bevel" transform="matrix(0.749472,0,0,0.750036,33.2277,153.311)"
font-family="Helvetica" font-size="13" font-weight="400" font-style="normal" 
>
<text fill="#212121" fill-opacity="1" stroke="none" xml:space="preserve" x="0" y="0" font-family="Helvetica" font-size="13" font-weight="400" font-style="normal" 
 >0.6</text>
</g>

<g fill="#212121" fill-opacity="1" stroke="#212121" stroke-opacity="1" stroke-width="1" stroke-linecap="square" stroke-linejoin="bevel" transform="matrix(0.749472,0,0,0.750036,33.2277,95.3438)"
font-family="Helvetica" font-size="13" font-weight="400" font-style="normal" 
>
<text fill="#212121" fill-opacity="1" stroke="none" xml:space="preserve" x="0" y="0" font-family="Helvetica" font-size="13" font-weight="400" font-style="normal" 
 >0.8</text>
</g>

<g fill="#212121" fill-opacity="1" stroke="#212121" stroke-opacity="1" stroke-width="1" stroke-linecap="square" stroke-linejoin="bevel" transform="matrix(0.749472,0,0,0.750036,41.4719,37.3767)"
font-family="Helvetica" font-size="13" font-weight="400" font-style="normal" 
>
<text fill="#212121" fill-opacity="1" stroke="none" xml:space="preserve" x="0" y="0" font-family="Helvetica" font-size="13" font-weight="400" font-style="normal" 
 >1</text>
</g>

<g fill="#7d7d7d" fill-opacity="0.701961" stroke="#7d7d7d" stroke-opacity="0.701961" stroke-dasharray="1,3" stroke-dashoffset="0" stroke-width="0.666667" stroke-linecap="butt" stroke-linejoin="round" transform="matrix(0.749472,0,0,0.750036,-48.9645,-8.7505)"
font-family="Helvetica" font-size="13" font-weight="400" font-style="normal" 
>
<polyline fill="none" vector-effect="none" points="133,58 1008,58 " />
</g>

<g fill="none" stroke="#1171be" stroke-opacity="1" stroke-width="0.666667" stroke-linecap="butt" stroke-linejoin="round" transform="matrix(0.749472,0,0,0.750036,-48.9645,-8.7505)"
font-family="Helvetica" font-size="13" font-weight="400" font-style="normal" 
>
<polyline fill="none" vector-effect="none" points="133,444.429 135.878,428.602 138.756,416.406 141.635,407.413 144.513,401.23 147.391,397.5 150.269,395.896 153.148,396.125 156.026,397.916 158.904,401.026 161.782,405.237 164.661,410.349 167.539,416.183 170.417,422.581 173.295,429.397 176.174,436.504 179.052,443.788 181.93,451.148 184.808,458.494 187.687,465.75 190.565,472.846 193.443,479.724 196.321,486.333 199.2,492.629 202.078,498.576 204.956,504.144 207.834,509.309 210.713,514.05 213.591,518.353 216.469,522.207 219.347,525.605 222.225,528.543 225.104,531.021 227.982,533.039 230.86,534.603 233.738,535.717 236.617,536.391 239.495,536.632 242.373,536.453 245.251,535.864 248.13,534.878 251.008,533.509 253.886,531.772 256.764,529.68 259.643,527.249 262.521,524.493 265.399,521.43 268.277,518.073 271.156,514.44 274.034,510.545 276.912,506.403 279.79,502.031 282.669,497.443 285.547,492.654 288.425,487.678 291.303,482.531 294.181,477.225 297.06,471.774 299.938,466.191 302.816,460.489 305.694,454.681 308.573,448.777 311.451,442.79 314.329,436.731 317.207,430.609 320.086,424.436 322.964,418.221 325.842,411.972 328.72,405.699 331.599,399.411 334.477,393.115 337.355,386.819 340.233,380.529 343.112,374.253 345.99,367.998 348.868,361.768 351.746,355.571 354.625,349.41 357.503,343.292 360.381,337.22 363.259,331.199 366.138,325.233 369.016,319.326 371.894,313.481 374.772,307.701 377.65,301.99 380.529,296.349 383.407,290.781 386.285,285.289 389.163,279.874 392.042,274.537 394.92,269.282 397.798,264.108 400.676,259.017 403.555,254.01 406.433,249.088 409.311,244.252 412.189,239.501 415.068,234.836 417.946,230.258 420.824,225.767 423.702,221.363 426.581,217.045 429.459,212.813 432.337,208.667 435.215,204.607 438.094,200.632 440.972,196.741 443.85,192.935 446.728,189.212 449.607,185.571 452.485,182.012 455.363,178.534 458.241,175.135 461.119,171.816 463.998,168.575 466.876,165.41 469.754,162.321 472.632,159.308 475.511,156.367 478.389,153.499 481.267,150.703 484.145,147.977 487.024,145.32 489.902,142.73 492.78,140.207 495.658,137.75 498.537,135.356 501.415,133.026 504.293,130.757 507.171,128.549 510.05,126.4 512.928,124.309 515.806,122.274 518.684,120.296 521.563,118.372 524.441,116.501 527.319,114.682 530.197,112.914 533.075,111.196 535.954,109.527 538.832,107.905 541.71,106.329 544.588,104.799 547.467,103.313 550.345,101.869 553.223,100.468 556.101,99.1085 558.98,97.7884 561.858,96.5074 564.736,95.2643 567.614,94.0583 570.493,92.8883 573.371,91.7535 576.249,90.6528 579.127,89.5855 582.006,88.5506 584.884,87.5472 587.762,86.5745 590.64,85.6318 593.519,84.718 596.397,83.8325 599.275,82.9745 602.153,82.1432 605.031,81.3378 607.91,80.5577 610.788,79.8021 613.666,79.0703 616.544,78.3617 619.423,77.6755 622.301,77.0112 625.179,76.368 628.057,75.7454 630.936,75.1428 633.814,74.5596 636.692,73.9952 639.57,73.449 642.449,72.9205 645.327,72.4092 648.205,71.9146 651.083,71.4362 653.962,70.9734 656.84,70.5258 659.718,70.0929 662.596,69.6743 665.475,69.2695 668.353,68.8782 671.231,68.4998 674.109,68.1341 676.987,67.7805 679.866,67.4388 682.744,67.1085 685.622,66.7893 688.5,66.4808 691.379,66.1827 694.257,65.8947 697.135,65.6164 700.013,65.3475 702.892,65.0879 705.77,64.837 708.648,64.5947 711.526,64.3606 714.405,64.1346 717.283,63.9163 720.161,63.7055 723.039,63.5019 725.918,63.3054 728.796,63.1157 731.674,62.9325 734.552,62.7557 737.431,62.5849 740.309,62.4202 743.187,62.2611 746.065,62.1076 748.944,61.9595 751.822,61.8165 754.7,61.6785 757.578,61.5454 760.456,61.417 763.335,61.293 766.213,61.1735 769.091,61.0581 771.969,60.9469 774.848,60.8395 777.726,60.736 780.604,60.6361 783.482,60.5398 786.361,60.4469 789.239,60.3573 792.117,60.2709 794.995,60.1876 797.874,60.1073 800.752,60.0298 803.63,59.9551 806.508,59.8831 809.387,59.8137 812.265,59.7468 815.143,59.6823 818.021,59.6201 820.9,59.5601 823.778,59.5024 826.656,59.4467 829.534,59.393 832.413,59.3413 835.291,59.2914 838.169,59.2434 841.047,59.1971 843.925,59.1525 846.804,59.1095 849.682,59.0681 852.56,59.0282 855.438,58.9898 858.317,58.9528 861.195,58.9171 864.073,58.8827 866.951,58.8496 869.83,58.8177 872.708,58.787 875.586,58.7574 878.464,58.7289 881.343,58.7015 884.221,58.6751 887.099,58.6496 889.977,58.6251 892.856,58.6015 895.734,58.5788 898.612,58.5569 901.49,58.5358 904.369,58.5155 907.247,58.496 910.125,58.4772 913.003,58.4591 915.881,58.4417 918.76,58.4249 921.638,58.4087 924.516,58.3932 927.394,58.3782 930.273,58.3638 933.151,58.3499 936.029,58.3366 938.907,58.3237 941.786,58.3114 944.664,58.2995 947.542,58.288 950.42,58.277 953.299,58.2664 956.177,58.2562 959.055,58.2464 961.933,58.2369 964.812,58.2278 967.69,58.2191 970.568,58.2107 973.446,58.2026 976.325,58.1948 979.203,58.1873 982.081,58.18 984.959,58.1731 987.838,58.1664 990.716,58.16 993.594,58.1538 996.472,58.1479 999.35,58.1422 1002.23,58.1367 1005.11,58.1314 1007.99,58.1263 1008,58.1263 " />
</g>
</g>
</svg>
